<?xml version="1.0" standalone="no"?>
<!DOCTYPE svg PUBLIC "-//W3C//DTD SVG 20010904//EN"
 "http://www.w3.org/TR/2001/REC-SVG-20010904/DTD/svg10.dtd">
<svg version="1.0" xmlns="http://www.w3.org/2000/svg"
 width="87.000000pt" height="87.000000pt" viewBox="0 0 87.000000 87.000000"
 preserveAspectRatio="xMidYMid meet">
<metadata>
Created by potrace 1.11, written by Peter Selinger 2001-2013
</metadata>
<g transform="translate(0.000000,87.000000) scale(0.100000,-0.100000)"
fill="#000000" stroke="none">
<path d="M495 823 c-8 -8 -15 -23 -15 -34 0 -10 -4 -19 -10 -19 -5 0 -10 -6
-10 -14 0 -11 -9 -13 -35 -9 -22 3 -35 2 -35 -5 0 -6 -9 -14 -20 -17 -20 -6
-29 -45 -10 -45 6 0 10 -9 10 -20 0 -11 -4 -20 -10 -20 -5 0 -10 9 -10 20 0
11 -4 20 -10 20 -5 0 -10 6 -10 13 0 24 -34 53 -60 53 -26 0 -50 -17 -50 -35
0 -6 -7 -11 -15 -11 -8 0 -15 -9 -15 -20 0 -11 -4 -20 -10 -20 -5 0 -10 5 -10
10 0 6 -13 10 -29 10 -21 0 -32 -6 -36 -20 -3 -11 -11 -20 -16 -20 -5 0 -9 -7
-9 -15 0 -8 4 -15 9 -15 5 0 11 -13 14 -30 5 -21 12 -30 27 -30 26 0 26 -17 0
-25 -27 -9 -27 -56 0 -75 26 -18 25 -28 -2 -52 -19 -16 -20 -21 -8 -29 13 -8
13 -10 0 -20 -11 -8 -12 -12 -2 -16 7 -2 19 -11 26 -19 8 -8 22 -14 30 -14 9
0 16 -4 16 -10 0 -5 6 -10 14 -10 11 0 13 -8 9 -33 -3 -23 1 -38 15 -54 20
-23 52 -31 52 -13 0 6 5 10 11 10 14 0 39 25 39 39 0 15 9 14 26 -4 21 -20 84
-20 84 0 0 8 5 15 10 15 6 0 10 18 10 40 0 22 -4 40 -10 40 -5 0 -10 5 -10 10
0 16 50 11 68 -7 12 -12 13 -18 4 -21 -6 -2 -12 -12 -12 -23 0 -10 -4 -19 -10
-19 -5 0 -10 -9 -10 -20 0 -11 -4 -20 -10 -20 -5 0 -10 -7 -10 -15 0 -8 -4
-15 -10 -15 -5 0 -10 -9 -10 -20 0 -11 -4 -20 -10 -20 -5 0 -10 -7 -10 -15 0
-8 -4 -15 -10 -15 -5 0 -10 -13 -10 -30 0 -16 5 -30 10 -30 6 0 10 -7 10 -15
0 -8 5 -15 10 -15 6 0 10 7 10 15 0 8 5 15 10 15 6 0 10 9 10 20 0 11 5 20 10
20 6 0 10 9 10 20 0 11 5 20 10 20 6 0 10 7 10 15 0 8 5 15 10 15 6 0 10 9 10
20 0 10 7 25 15 32 44 36 65 60 65 74 0 26 23 41 72 46 49 6 78 25 78 52 0 9
5 16 10 16 6 0 10 9 10 20 0 25 -42 70 -65 70 -16 0 -65 -42 -65 -57 -1 -10
-36 -53 -44 -53 -3 0 -6 25 -6 55 l0 55 35 0 c19 0 35 4 35 9 0 5 9 13 20 16
14 4 20 15 20 33 0 16 -8 34 -20 42 -26 19 -25 28 3 32 14 2 23 11 25 26 2 12
8 22 13 22 16 0 10 30 -11 52 -15 16 -27 20 -54 15 -32 -5 -35 -4 -42 26 -3
17 -13 37 -21 45 -20 21 -80 24 -98 5z m29 -334 c9 -46 7 -79 -4 -79 -5 0 -10
7 -10 15 0 8 -11 25 -25 39 -30 30 -31 36 -5 36 11 0 20 5 20 10 0 23 18 7 24
-21z m-44 -89 c0 -5 -4 -10 -10 -10 -5 0 -10 5 -10 10 0 6 5 10 10 10 6 0 10
-4 10 -10z"/>
</g>
</svg>
